<svg fill="none" height="32" viewBox="0 0 32 32" width="32" xmlns="http://www.w3.org/2000/svg"><g fill="#005c6e"><path d="m12.9326 11.2631c-5.47497 0-9.9326 4.6513-9.9326 10.1262 0 5.572 4.45763 10.2235 9.9326 10.2235 5.475 0 9.9326-4.6515 9.9326-10.2235 0-5.4749-4.4576-10.1262-9.9326-10.1262zm0 15.1168c-2.6163 0-4.65132-2.2288-4.65132-4.9906 0-2.7132 2.03502-4.8936 4.65132-4.8936 2.5679 0 4.6513 2.1804 4.6513 4.8936 0 2.7618-2.0834 4.9906-4.6513 4.9906z"/><path d="m26.9035 7.26288c.9509-.94809 1.6684-2.1041 2.0963-3.37689.4123-1.2299.5462-2.53602.3921-3.8239933-1.288-.1540593-2.5941-.0201294-3.824.3921153-1.272.429566-2.4276 1.146938-3.3769 2.096248-.9494.94932-1.6666 2.10496-2.0962 3.37691-.4123 1.22992-.5462 2.53602-.3923 3.82399 1.2881.15406 2.5943.02014 3.824-.39211 1.2729-.4278 2.4289-1.14541 3.377-2.09627z"/></g></svg>