<?xml version="1.0" encoding="UTF-8"?>
<svg width="16px" height="16px" viewBox="0 0 16 16" version="1.1" xmlns="http://www.w3.org/2000/svg" xmlns:xlink="http://www.w3.org/1999/xlink">
    <g stroke="none" stroke-width="1" fill="none" fill-rule="evenodd">
        <g transform="translate(-468.000000, -214.000000)" fill="#d49d75" fill-rule="nonzero">
            <g transform="translate(468.000000, 214.000000)">
                <path d="M8,0 C3.6,0 0,3.6 0,8 C0,12.4 3.6,16 8,16 C12.4,16 16,12.4 16,8 C16,3.6 12.4,0 8,0 Z M10.2,7.4 C10.2,7.4 10,6.8 9.9,6.6 C11.6,5.8 12.7,4.9 13.1,4.4 C13.8,5.3 14.2,6.4 14.3,7.6 C13.5,7.4 11.7,7.1 10.2,7.4 Z M9.1,5.1 C8.3,3.7 7.4,2.5 7,1.8 C8.9,1.3 10.6,1.9 11.9,3.1 C11.5,3.6 10.7,4.4 9.1,5.1 Z M5.1,2.5 C5.5,3 6.3,4.2 7.1,5.7 C4.9,6.2 2.9,6.3 2,6.3 C2.4,4.7 3.6,3.3 5.1,2.5 Z M8,7.3 C8.1,7.5 8.2,7.7 8.3,7.8 C5.5,8.7 3.7,11 3.1,11.9 C2.3,10.8 1.8,9.5 1.8,8.2 C2.7,8.1 5.3,8 8,7.3 Z M9,9.5 C9.7,11.5 10.1,13.1 10.2,13.9 C8.1,14.6 5.7,14.2 4.4,13.1 C4.8,12.4 6.1,10.6 9,9.5 Z M11.9,12.9 C11.7,12.1 11.4,10.7 10.8,9 C11.9,8.8 13.5,9 14.1,9.2 C13.8,10.7 13,12 11.9,12.9 Z"></path>
            </g>
        </g>
    </g>
</svg>
