<?xml version="1.0" encoding="UTF-8"?>
<svg width="16px" height="13px" viewBox="0 0 16 13" version="1.1" xmlns="http://www.w3.org/2000/svg" xmlns:xlink="http://www.w3.org/1999/xlink">
    <g stroke="none" stroke-width="1" fill="none" fill-rule="evenodd">
        <g transform="translate(-826.000000, -912.000000)" fill="#d49d75">
            <g transform="translate(510.000000, 80.000000)">
                <path d="M332,836.191761 L332,843.522727 C332,843.928979 331.86012,844.27675 331.580357,844.566051 C331.300594,844.855352 330.964288,845 330.571429,845 L317.428571,845 C317.035712,845 316.699406,844.855352 316.419643,844.566051 C316.13988,844.27675 316,843.928979 316,843.522727 L316,836.191761 C316.261906,836.493373 316.562498,836.761126 316.901786,836.995028 C319.056558,838.509241 320.53571,839.57102 321.339286,840.180398 C321.678573,840.438922 321.953868,840.640506 322.165179,840.785156 C322.376489,840.929807 322.657736,841.077532 323.008929,841.228338 C323.360121,841.379144 323.687498,841.454545 323.991071,841.454545 L324.008929,841.454545 C324.312502,841.454545 324.639879,841.379144 324.991071,841.228338 C325.342264,841.077532 325.623511,840.929807 325.834821,840.785156 C326.046132,840.640506 326.321427,840.438922 326.660714,840.180398 C327.672624,839.423292 329.154752,838.361513 331.107143,836.995028 C331.44643,836.75497 331.744046,836.487217 332,836.191761 Z M332,833.477273 C332,833.963544 331.854168,834.428265 331.5625,834.871449 C331.270832,835.314633 330.90774,835.69318 330.473214,836.007102 C328.235108,837.613644 326.842265,838.613871 326.294643,839.007812 C326.235119,839.0509 326.108632,839.144767 325.915179,839.289418 C325.721725,839.434068 325.561013,839.551018 325.433036,839.64027 C325.305059,839.729522 325.150299,839.829545 324.96875,839.940341 C324.787201,840.051137 324.616072,840.134233 324.455357,840.189631 C324.294642,840.245029 324.145834,840.272727 324.008929,840.272727 L323.991071,840.272727 C323.854166,840.272727 323.705358,840.245029 323.544643,840.189631 C323.383928,840.134233 323.212799,840.051137 323.03125,839.940341 C322.849701,839.829545 322.694941,839.729522 322.566964,839.64027 C322.438987,839.551018 322.278275,839.434068 322.084821,839.289418 C321.891368,839.144767 321.764881,839.0509 321.705357,839.007812 C321.163688,838.613871 320.383934,838.052205 319.366071,837.322798 C318.348209,836.593391 317.738096,836.15483 317.535714,836.007102 C317.166665,835.748578 316.818454,835.393113 316.491071,834.940696 C316.163689,834.488279 316,834.068184 316,833.680398 C316,833.200282 316.123511,832.800191 316.370536,832.480114 C316.617561,832.160036 316.970236,832 317.428571,832 L330.571429,832 C330.958335,832 331.293153,832.144648 331.575893,832.433949 C331.858632,832.72325 332,833.071021 332,833.477273 Z"></path>
            </g>
        </g>
    </g>
</svg>
