<?xml version="1.0" encoding="UTF-8"?>
<svg width="16px" height="16px" viewBox="0 0 16 16" version="1.1" xmlns="http://www.w3.org/2000/svg" xmlns:xlink="http://www.w3.org/1999/xlink">
    <g stroke="none" stroke-width="1" fill="none" fill-rule="evenodd">
        <g transform="translate(-430.000000, -214.000000)" fill="#d49d75">
            <g transform="translate(0.000000, 100.000000)">
                <g transform="translate(130.000000, 99.000000)">
                    <g transform="translate(252.000000, 12.000000)">
                        <path d="M55.9503106,3 C51.5776398,3 48,6.68761237 48,11.1946942 C48,14.7798729 50.2857143,17.8528832 53.4658385,18.9796536 C53.863354,19.0820873 53.9627329,18.7747863 53.9627329,18.5699189 C53.9627329,18.3650516 53.9627329,17.8528832 53.9627329,17.1358474 C51.7763975,17.6480158 51.2795031,16.1115107 51.2795031,16.1115107 C50.8819876,15.1896076 50.3850932,14.8823065 50.3850932,14.8823065 C49.689441,14.3701382 50.484472,14.3701382 50.484472,14.3701382 C51.2795031,14.4725718 51.6770186,15.1896076 51.6770186,15.1896076 C52.3726708,16.5212454 53.5652174,16.1115107 53.9627329,15.9066433 C54.0621118,15.3944749 54.2608696,14.9847402 54.4596273,14.7798729 C52.6708075,14.5750055 50.8819876,13.8579698 50.8819876,10.6825258 C50.8819876,9.76062268 51.1801242,9.04358695 51.6770186,8.53141856 C51.5776398,8.32655121 51.2795031,7.50708179 51.7763975,6.38031134 C51.7763975,6.38031134 52.4720497,6.17544399 53.9627329,7.19978076 C54.5590062,6.9949134 55.2546584,6.89247973 55.9503106,6.89247973 C56.6459627,6.89247973 57.3416149,6.9949134 57.9378882,7.19978076 C59.4285714,6.17544399 60.1242236,6.38031134 60.1242236,6.38031134 C60.5217391,7.50708179 60.3229814,8.32655121 60.2236025,8.53141856 C60.7204969,9.14602062 61.0186335,9.86305636 61.0186335,10.6825258 C61.0186335,13.8579698 59.1304348,14.4725718 57.3416149,14.6774392 C57.6397516,15.0871739 57.9378882,15.5993423 57.9378882,16.316378 C57.9378882,17.4431485 57.9378882,18.2626179 57.9378882,18.5699189 C57.9378882,18.7747863 58.0372671,19.0820873 58.5341615,18.9796536 C61.7142857,17.8528832 64,14.7798729 64,11.1946942 C63.9006211,6.68761237 60.3229814,3 55.9503106,3 Z"></path>
                    </g>
                </g>
            </g>
        </g>
    </g>
</svg>
