<?xml version="1.0" encoding="UTF-8"?>
<svg width="17px" height="16px" viewBox="0 0 17 16" version="1.1" xmlns="http://www.w3.org/2000/svg" xmlns:xlink="http://www.w3.org/1999/xlink">
    <g stroke="none" stroke-width="1" fill="none" fill-rule="evenodd">
        <g transform="translate(-322.000000, -211.000000)" fill="#d49d75" fill-rule="nonzero">
            <g transform="translate(0.000000, 100.000000)">
                <g transform="translate(130.000000, 99.000000)">
                    <g transform="translate(192.000000, 12.000000)">
                        <path d="M15.3,0 L0.7,0 C0.3,0 0,0.3 0,0.7 L0,15.4 C0,15.7 0.3,16 0.7,16 L15.4,16 C15.8,16 16.1,15.7 16.1,15.3 L16.1,0.7 C16,0.3 15.7,0 15.3,0 Z M4.7,13.6 L2.4,13.6 L2.4,6 L4.8,6 L4.8,13.6 L4.7,13.6 Z M3.6,5 C2.8,5 2.2,4.3 2.2,3.6 C2.2,2.8 2.8,2.2 3.6,2.2 C4.4,2.2 5,2.8 5,3.6 C4.9,4.3 4.3,5 3.6,5 Z M13.6,13.6 L11.2,13.6 L11.2,9.9 C11.2,9 11.2,7.9 10,7.9 C8.8,7.9 8.6,8.9 8.6,9.9 L8.6,13.7 L6.2,13.7 L6.2,6 L8.5,6 L8.5,7 C8.8,6.4 9.6,5.8 10.7,5.8 C13.1,5.8 13.5,7.4 13.5,9.4 L13.5,13.6 L13.6,13.6 Z"></path>
                    </g>
                </g>
            </g>
        </g>
    </g>
</svg>
