<svg enable-background="new 0 0 64 46" viewBox="0 0 64 46" xmlns="http://www.w3.org/2000/svg"><path d="m32 44.25c14.96 0 20.67-7.82 21.79-9.63.15-.23.16-.52.07-.78l-.76-2.11c-.11-.3-.07-.64.12-.91l1.42-2.05c.22-.32.24-.74.04-1.08l-1.61-2.71c-.09-.15-.14-.33-.14-.51-.1-13-6.95-21.22-20.92-21.22-14 0-20.22 8.32-20.33 21.16 0 .22-.07.43-.21.61l-1.97 2.57c-.29.38-.27.91.05 1.27l1.65 1.85c.28.32.33.78.13 1.15l-1.06 1.92c-.16.29-.17.64.01.92 1.23 1.96 6.98 9.55 21.72 9.55z" fill="#e7a464"/><path d="m31.99 18.25c8.65 0 10.02 26 0 26-10.28 0-8.31-26 0-26z" fill="#fff"/><path d="m32 39.25c3.81 0 4-6 4-6s-4-1-4-3c0 2-4 3-4 3s.19 6 4 6z" fill="#ff4da2"/><path d="m32 45.75c-15.32 0-21.48-7.84-23-10.24-.46-.73-.49-1.67-.05-2.45l.89-1.61-1.41-1.59c-.79-.89-.84-2.23-.12-3.18l1.86-2.45c.18-14.49 7.92-22.48 21.83-22.48 14.1 0 22.26 8.23 22.41 22.58l1.54 2.6c.5.84.46 1.9-.09 2.71l-1.27 1.83.67 1.86c.25.7.18 1.46-.2 2.07-6.09 9.85-20.28 10.35-23.06 10.35zm-20.26-11.54c1.37 1.98 6.92 8.54 20.26 8.54 13.58 0 19.05-6.73 20.35-8.66l-.66-1.84c-.27-.76-.16-1.61.3-2.27l1.24-1.78-1.45-2.43c-.23-.38-.35-.82-.35-1.27-.13-16.33-10.64-19.75-19.43-19.75-12.39 0-18.72 6.62-18.83 19.67 0 .54-.19 1.08-.51 1.51l-1.71 2.25 1.38 1.55c.7.79.83 1.95.32 2.87z" fill="#1f1c21"/><path d="m43.5 29.25c0-.82-.66-1.48-1.48-1.49-.81-.05-1.5.65-1.52 1.47-.02.59-.3 2.52-3.26 2.52-2.94 0-3.59-1.9-3.72-2.54 1.4-.18 2.48-1.37 2.48-2.82 0-1.18-.96-2.14-2.14-2.14h-3.71c-1.18 0-2.14.96-2.14 2.14 0 1.45 1.09 2.64 2.49 2.82-.1.53-.69 2.54-3.71 2.54-2.98 0-3.27-1.93-3.28-2.5 0-.83-.67-1.5-1.5-1.5s-1.5.67-1.5 1.5c0 1.52 1.11 5.42 6.14 5.49.42 2.7 1.86 6.01 5.36 6.01 3.49 0 4.93-3.31 5.36-6.01 5.02-.06 6.13-3.97 6.13-5.49zm-11.5 8.5c-1.55 0-2.15-2.1-2.37-3.44.49-.19 1.06-.44 1.6-.77l.28 2.76c.03.26.24.45.5.45s.47-.19.5-.45l.28-2.76c.54.33 1.11.58 1.6.77-.24 1.34-.84 3.44-2.39 3.44z" fill="#1f1c21"/><path d="m31.99 5.25c9.88 0 11.46 5 0 5-11.75 0-9.5-5 0-5z" fill="#fff"/><path d="m30 25.68c0-.24.19-.43.43-.43h3.14c.24 0 .43.19.43.43 0 .32-.26.57-.57.57h-2.86c-.31 0-.57-.26-.57-.57z" fill="#6c6b70"/><ellipse cx="21.5" cy="18.75" fill="#1f1c21" rx="3.5" ry="4.5"/><path d="m60.36 3.96c1.2 1.33 1.87 3.21 2.07 5.4.2 2.18-.09 4.58-.71 6.81-.63 2.24-1.57 4.23-2.61 5.63-1.1 1.47-2.05 1.95-2.63 1.95-1.91 0-3.88-1.28-5.46-3.88-1.56-2.57-2.57-6.22-2.57-10.33 0-2.74-1.32-4.62-3.12-5.8-.18-.11-.36-.22-.54-.32 1.32-.36 2.68-.72 4.05-1.01 2.42-.51 4.75-.8 6.77-.6 2 .2 3.6.86 4.75 2.15z" fill="#e7a464"/><path d="m56.49 25.25c-2.55 0-4.94-1.63-6.74-4.6s-2.79-6.91-2.79-11.11c0-1.95-.82-3.48-2.44-4.55-.14-.09-.29-.18-.44-.27l-3.22-1.67s6.15-1.79 7.68-2.11c2.9-.61 5.26-.82 7.23-.62 2.48.25 4.35 1.11 5.72 2.64 1.39 1.55 2.21 3.65 2.45 6.26.21 2.29-.05 4.83-.76 7.35-.66 2.37-1.68 4.54-2.85 6.12-1.59 2.12-2.97 2.56-3.84 2.56zm-8.46-21.12c1.25 1.48 1.92 3.34 1.92 5.41 0 3.6.86 7.08 2.36 9.55 1.22 2.01 2.74 3.16 4.18 3.16-.02 0 .54-.16 1.43-1.35.96-1.29 1.8-3.11 2.37-5.13.6-2.15.83-4.37.66-6.27-.18-1.92-.76-3.49-1.7-4.53-.85-.94-2.08-1.48-3.78-1.65-1.66-.17-3.72.02-6.31.57-.39.07-.76.16-1.13.24z" fill="#1f1c21"/><path d="m3.64 3.96c-1.2 1.33-1.87 3.21-2.07 5.4-.2 2.18.09 4.58.71 6.81.63 2.24 1.57 4.23 2.61 5.63 1.1 1.47 2.05 1.95 2.63 1.95 1.91 0 3.88-1.28 5.46-3.88 1.56-2.57 2.57-6.22 2.57-10.33 0-2.74 1.32-4.62 3.12-5.8.18-.11.36-.22.54-.32-1.32-.36-2.68-.72-4.05-1.01-2.42-.51-4.75-.8-6.77-.6-2 .2-3.6.86-4.75 2.15z" fill="#e7a464"/><path d="m7.51 25.25c-.88 0-2.25-.44-3.83-2.56-1.18-1.58-2.19-3.75-2.85-6.12-.71-2.52-.97-5.07-.76-7.35.24-2.61 1.06-4.72 2.45-6.26 1.37-1.53 3.24-2.39 5.72-2.64 1.97-.19 4.33.01 7.23.62 1.53.32 7.68 2.14 7.68 2.14l-3.22 1.65c-.14.08-.29.17-.44.27-1.62 1.06-2.44 2.59-2.44 4.55 0 4.2-.99 8.14-2.79 11.11-1.8 2.96-4.2 4.59-6.75 4.59zm2.25-22c-.43 0-.84.02-1.22.06-1.7.17-2.94.71-3.79 1.65-.93 1.04-1.52 2.61-1.69 4.53-.17 1.9.06 4.13.66 6.27.57 2.02 1.41 3.85 2.37 5.13.91 1.21 1.47 1.35 1.48 1.35 1.39 0 2.91-1.15 4.13-3.16 1.5-2.47 2.36-5.95 2.36-9.55 0-2.08.67-3.93 1.92-5.41-.37-.09-.75-.17-1.12-.25-2-.41-3.68-.62-5.1-.62z" fill="#1f1c21"/><ellipse cx="42.5" cy="18.75" fill="#1f1c21" rx="3.5" ry="4.5"/><g fill="#fff"><circle cx="42" cy="17.25" r="1"/><circle cx="43.5" cy="20.75" r=".5"/><circle cx="22" cy="17.25" r="1"/><circle cx="20.5" cy="20.75" r=".5"/></g></svg>