<svg viewBox="0 0 93.2 116.6" xmlns="http://www.w3.org/2000/svg"><path d="m7.9 96.6c-.3 0-.7-.1-.9-.3-.5-.5-.5-1.3 0-1.8l34.9-34.9h-20.6c-.5 0-1-.3-1.2-.8s-.1-1 .3-1.3l40.2-40.2c.5-.5 1.3-.5 1.8 0s.5 1.3 0 1.8l-37.9 38h20.5c.5 0 1 .3 1.2.8s.1 1-.3 1.3l-37 37c-.4.3-.7.4-1 .4z"/><path d="m92.8 2.1c.5-.5.5-1.3 0-1.8s-1.3-.5-1.8 0l-50.4 50.5c-.3.3-.5.9-.3 1.3.2.5.7.8 1.2.8h20.5l-61.6 61.6c-.5.5-.5 1.3 0 1.8.3.3.6.3.9.3s.7-.1.9-.3l63.8-63.8c.3-.3.5-.9.3-1.3-.2-.5-.7-.8-1.2-.8h-7.1l31.2-31.2c.5-.5.5-1.3 0-1.8s-1.3-.5-1.8 0l-33.2 33h-9.8z"/><path d="m34.7 96.6c-.3 0-.7-.1-.9-.3-.5-.5-.5-1.3 0-1.8l30.2-30.2c.5-.5 1.3-.5 1.8 0s.5 1.3 0 1.8l-30.2 30.1c-.2.3-.5.4-.9.4z"/></svg>