<svg
  version="1.1"
  id="svg2"
  xml:space="preserve"
  width="1288.6801"
  height="829.52002"
  viewBox="0 0 1288.6801 829.52002"
  xmlns="http://www.w3.org/2000/svg"
>
  <g id="g8" transform="matrix(1.3333333,0,0,-1.3333333,0,829.52)">
    <g id="g10" transform="scale(0.1)">
      <path
        d="m 6688.24,2456.07 c 20.79,160.85 50.99,284.24 90.33,370.26 39.4,86.01 154.84,192.26 346.11,319.57 l -95.38,-732.83 c -23.46,-178.96 -48.32,-289.36 -74.62,-331.39 -26.34,-42.03 -74.17,-63.05 -143.48,-63.05 -70.78,0 -115.2,26.58 -132.64,80.45 -17.85,53.63 -14.48,172.68 9.68,356.99 z m -902.83,-910.33 c 146.08,-106.51 314.72,-159.88 505.74,-159.88 145.42,0 275.15,31.83 388.87,95.65 113.98,63.98 212.78,159.88 296.86,287.67 l -41.79,-321.02 h 714.22 c 125.71,64.88 248.16,133.34 368.1,204.1 L 8224.6,3243 c 77.06,591.27 109.2,981.55 96.66,1171.17 -12.57,189.38 -103.9,349.26 -273.67,479.69 -170.04,130.18 -440.1,195.39 -810.35,195.39 -306.74,0 -564.2,-57.73 -772.39,-172.94 -208.45,-115.2 -354.1,-248.06 -437.2,-398.54 -83.08,-150.2 -142.76,-364.2 -178.73,-641.49 l -31.41,-240.32 h 1024.33 l 49.05,376.29 c 26.12,200.5 51.18,324.4 75.6,372.22 24.39,47.83 73.17,71.74 145.86,71.74 65.49,0 108.72,-28.51 129.49,-85.27 20.77,-56.99 19.07,-179.46 -5.32,-367.12 -19.59,-150.01 -45.43,-249.28 -77.06,-297.82 -31.87,-48.56 -235.75,-142.74 -611.79,-282.59 -353.11,-128.96 -578.22,-241.78 -675.32,-338.63 -97.1,-96.84 -162.79,-278.7 -197.58,-545.61 l -38.17,-293.22 c -47.09,-360.16 2.67,-593.69 148.81,-700.21"
        style="fill:#006280;fill-opacity:1;fill-rule:nonzero;stroke:none"
        id="path12"
      />
      <path
        d="m 5649.42,3885.95 h -961.28 l 25.11,192.73 c 21.25,164.25 25.32,268.35 11.82,312.04 -13.3,43.75 -57.23,65.49 -131.88,65.49 -61.85,0 -110.74,-20.06 -146.97,-60.64 -36.21,-40.32 -59.42,-100.96 -70.03,-181.63 -14.26,-109.65 -16.94,-190.09 -8.22,-241.3 8.67,-50.94 47.09,-106.98 115.22,-168.11 68.23,-61.09 213.35,-149.98 435.57,-266.62 297.1,-154.57 485.53,-299.98 565.67,-436.47 81.65,-136.46 105.79,-335.01 71.75,-595.12 -37.69,-291.08 -104.34,-510.59 -199.72,-658.68 -95.42,-148.05 -236.25,-262.31 -423.18,-341.99 -186.7,-79.95 -405.05,-119.79 -654.65,-119.79 -274.99,0 -505.45,42.96 -691.4,129.17 -185.99,86.26 -306.27,202.94 -360.12,350.52 -54.36,147.07 -61.83,369.79 -22.97,668.06 l 22.5,172.68 h 961.23 l -29.47,-226.55 c -25.11,-192.53 -29.22,-317.4 -12.55,-374.9 16.94,-57.44 60.37,-86.21 130.38,-86.21 77.48,0 134,19.34 169.74,57.75 35.53,38.62 61.5,120.04 77.67,243.94 22.22,170.55 16.18,277.26 -17.86,320.52 -36.14,42.95 -229.81,170.54 -581.37,382.6 -296.36,179.44 -469.8,342.23 -520.03,488.63 -50.5,146.36 -62.54,319.99 -36.46,521.22 37.18,285.47 102.18,496.09 194.93,631.58 92.75,135.53 234.26,240.35 424.82,313.78 190.31,73.67 404.94,110.6 643.66,110.6 236.99,0 434.3,-30.2 592,-90.1 157.52,-59.87 274.38,-139.12 350.27,-237.65 75.54,-98.56 117.6,-189.84 125.58,-273.9 7.94,-84.29 0.46,-215.93 -22.97,-394.92 l -26.79,-206.73"
        style="fill:#006280;fill-opacity:1;fill-rule:nonzero;stroke:none"
        id="path14"
      />
      <path
        d="m 1996.14,5518.33 37.79,289.72 H 946.563 L 767.105,4430.11 c 335.725,405.77 750.085,774.95 1229.035,1088.22"
        style="fill:#006280;fill-opacity:1;fill-rule:nonzero;stroke:none"
        id="path16"
      />
      <path
        d="M 2130.56,4009.13 1934.43,2503.41 c -27.78,-211.86 -55.07,-345.66 -82.61,-401.16 -27.29,-55.81 -75.61,-83.62 -144.69,-83.62 -67.62,0 -108.68,26.83 -123.65,80.71 -14.74,53.87 -9.66,177.07 15.45,369.08 l 200.71,1540.71 c 25.86,199.26 51.45,323.66 77.3,373.15 25.6,49.28 71.98,73.93 139.36,73.93 69.33,0 111.83,-28.27 127.05,-84.8 15.46,-56.52 11.36,-177.26 -12.79,-362.28 z M 3558.95,5970.59 C 1888.04,5492.36 599.242,4418.53 0,3170.79 c 207.469,261.77 442.008,511.67 700.313,746.44 L 378.719,1448.16 H 1395.08 l 106.04,272.19 c 76.09,-111.35 165.69,-195.16 269.06,-250.93 103.12,-55.81 218.11,-83.56 345.16,-83.56 179.21,0 339.34,47.04 480.15,141.25 140.81,94.23 237.44,205.55 289.36,334.04 52.19,128.26 95.42,323.69 129.45,585.75 l 209.9,1610.77 c 34.3,263.76 50.74,436.23 49.52,517.12 -1.22,80.68 -24.89,163.27 -70.77,247.8 -46.12,84.33 -121.01,150 -224.38,196.62 -103.63,46.6 -230.67,70.04 -380.65,70.04 -56.53,0 -111.84,-5.92 -166.18,-15.83 392,188.3 808.64,349.02 1247.99,474.75 1554.75,445.13 3102.96,386.69 4380.16,-69.32 -1168.25,741.02 -2830.25,970.22 -4500.94,491.74"
        style="fill:#006280;fill-opacity:1;fill-rule:nonzero;stroke:none"
        id="path18"
      />
      <path
        d="M 5912.91,625 C 4345.02,228.172 2799.58,335.199 1537.11,830.781 2681.73,53.8008 4335.58,-227.32 6020.4,198.68 7705.54,624.801 9027.48,1657.82 9665.13,2885.96 8789.54,1849.83 7480.97,1021.12 5912.91,625"
        style="fill:#e05e15;fill-opacity:1;fill-rule:nonzero;stroke:none"
        id="path20"
      />
    </g>
  </g>
</svg>
