<svg
  version="1.1"
  xmlns="http://www.w3.org/2000/svg"
  xmlns:xlink="http://www.w3.org/1999/xlink"
  x="0px"
  y="0px"
  viewBox="0 0 64 46"
  style="enable-background:new 0 0 64 46;"
  xml:space="preserve"
>
  <style type="text/css">
.st0 {
  fill: #e7a464;
}
.st1 {
  fill: #ffffff;
}
.st2 {
  fill: #ff4da2;
}
.st3 {
  fill: #1f1c21;
}
.st4 {
  fill: #6c6b70;
}
  </style>
  <path
    class="st0"
    d="M32,44.25c14.96,0,20.67-7.82,21.79-9.63c0.15-0.23,0.16-0.52,0.07-0.78l-0.76-2.11
    c-0.11-0.3-0.07-0.64,0.12-0.91l1.42-2.05c0.22-0.32,0.24-0.74,0.04-1.08l-1.61-2.71c-0.09-0.15-0.14-0.33-0.14-0.51
    c-0.1-13-6.95-21.22-20.92-21.22c-14,0-20.22,8.32-20.33,21.16c0,0.22-0.07,0.43-0.21,0.61L9.5,27.59
    c-0.29,0.38-0.27,0.91,0.05,1.27l1.65,1.85c0.28,0.32,0.33,0.78,0.13,1.15l-1.06,1.92c-0.16,0.29-0.17,0.64,0.01,0.92
    C11.51,36.66,17.26,44.25,32,44.25z"
  />
  <path
    class="st1"
    d="M31.99,18.25c8.65,0,10.02,26,0,26C21.71,44.25,23.68,18.25,31.99,18.25z"
  />
  <path
    class="st2"
    d="M32,39.25c3.81,0,4-6,4-6s-4-1-4-3c0,2-4,3-4,3S28.19,39.25,32,39.25z"
  />
  <g>
    <path
      class="st3"
      d="M32,45.75c-15.32,0-21.48-7.84-23-10.24c-0.46-0.73-0.49-1.67-0.05-2.45l0.89-1.61l-1.41-1.59
      c-0.79-0.89-0.84-2.23-0.12-3.18l1.86-2.45C10.35,9.74,18.09,1.75,32,1.75c14.1,0,22.26,8.23,22.41,22.58l1.54,2.6
      c0.5,0.84,0.46,1.9-0.09,2.71l-1.27,1.83l0.67,1.86c0.25,0.7,0.18,1.46-0.2,2.07C48.97,45.25,34.78,45.75,32,45.75z M11.74,34.21
      c1.37,1.98,6.92,8.54,20.26,8.54c13.58,0,19.05-6.73,20.35-8.66l-0.66-1.84c-0.27-0.76-0.16-1.61,0.3-2.27l1.24-1.78l-1.45-2.43
      c-0.23-0.38-0.35-0.82-0.35-1.27C51.3,8.17,40.79,4.75,32,4.75c-12.39,0-18.72,6.62-18.83,19.67c0,0.54-0.19,1.08-0.51,1.51
      l-1.71,2.25l1.38,1.55c0.7,0.79,0.83,1.95,0.32,2.87L11.74,34.21z"
    />
  </g>
  <path
    class="st3"
    d="M43.5,29.25c0-0.82-0.66-1.48-1.48-1.49c-0.81-0.05-1.5,0.65-1.52,1.47c-0.02,0.59-0.3,2.52-3.26,2.52
    c-2.94,0-3.59-1.9-3.72-2.54c1.4-0.18,2.48-1.37,2.48-2.82c0-1.18-0.96-2.14-2.14-2.14h-3.71c-1.18,0-2.14,0.96-2.14,2.14
    c0,1.45,1.09,2.64,2.49,2.82c-0.1,0.53-0.69,2.54-3.71,2.54c-2.98,0-3.27-1.93-3.28-2.5c0-0.83-0.67-1.5-1.5-1.5s-1.5,0.67-1.5,1.5
    c0,1.52,1.11,5.42,6.14,5.49c0.42,2.7,1.86,6.01,5.36,6.01c3.49,0,4.93-3.31,5.36-6.01C42.39,34.68,43.5,30.77,43.5,29.25z
    M32,37.75c-1.55,0-2.15-2.1-2.37-3.44c0.49-0.19,1.06-0.44,1.6-0.77l0.28,2.76c0.03,0.26,0.24,0.45,0.5,0.45s0.47-0.19,0.5-0.45
    l0.28-2.76c0.54,0.33,1.11,0.58,1.6,0.77C34.15,35.65,33.55,37.75,32,37.75z"
  />
  <path
    class="st1"
    d="M31.99,5.25c9.88,0,11.46,5,0,5C20.24,10.25,22.49,5.25,31.99,5.25z"
  />
  <path
    class="st4"
    d="M30,25.68c0-0.24,0.19-0.43,0.43-0.43h3.14c0.24,0,0.43,0.19,0.43,0.43c0,0.32-0.26,0.57-0.57,0.57h-2.86
    C30.26,26.25,30,25.99,30,25.68z"
  />
  <ellipse class="st3" cx="21.5" cy="18.75" rx="3.5" ry="4.5" />
  <g>
    <path
      class="st0"
      d="M60.36,3.96c1.2,1.33,1.87,3.21,2.07,5.4c0.2,2.18-0.09,4.58-0.71,6.81c-0.63,2.24-1.57,4.23-2.61,5.63
      c-1.1,1.47-2.05,1.95-2.63,1.95c-1.91,0-3.88-1.28-5.46-3.88c-1.56-2.57-2.57-6.22-2.57-10.33c0-2.74-1.32-4.62-3.12-5.8
      c-0.18-0.11-0.36-0.22-0.54-0.32c1.32-0.36,2.68-0.72,4.05-1.01c2.42-0.51,4.75-0.8,6.77-0.6C57.61,2.01,59.21,2.67,60.36,3.96z"
    />
    <path
      class="st3"
      d="M56.49,25.25c-2.55,0-4.94-1.63-6.74-4.6s-2.79-6.91-2.79-11.11c0-1.95-0.82-3.48-2.44-4.55
      c-0.14-0.09-0.29-0.18-0.44-0.27l-3.22-1.67c0,0,6.15-1.79,7.68-2.11c2.9-0.61,5.26-0.82,7.23-0.62c2.48,0.25,4.35,1.11,5.72,2.64
      l0,0c1.39,1.55,2.21,3.65,2.45,6.26c0.21,2.29-0.05,4.83-0.76,7.35c-0.66,2.37-1.68,4.54-2.85,6.12
      C58.74,24.81,57.36,25.25,56.49,25.25z M48.03,4.13c1.25,1.48,1.92,3.34,1.92,5.41c0,3.6,0.86,7.08,2.36,9.55
      c1.22,2.01,2.74,3.16,4.18,3.16c-0.02,0,0.54-0.16,1.43-1.35c0.96-1.29,1.8-3.11,2.37-5.13c0.6-2.15,0.83-4.37,0.66-6.27
      c-0.18-1.92-0.76-3.49-1.7-4.53l0,0c-0.85-0.94-2.08-1.48-3.78-1.65c-1.66-0.17-3.72,0.02-6.31,0.57
      C48.77,3.96,48.4,4.05,48.03,4.13z"
    />
  </g>
  <g>
    <path
      class="st0"
      d="M3.64,3.96c-1.2,1.33-1.87,3.21-2.07,5.4c-0.2,2.18,0.09,4.58,0.71,6.81c0.63,2.24,1.57,4.23,2.61,5.63
      c1.1,1.47,2.05,1.95,2.63,1.95c1.91,0,3.88-1.28,5.46-3.88c1.56-2.57,2.57-6.22,2.57-10.33c0-2.74,1.32-4.62,3.12-5.8
      c0.18-0.11,0.36-0.22,0.54-0.32c-1.32-0.36-2.68-0.72-4.05-1.01c-2.42-0.51-4.75-0.8-6.77-0.6C6.39,2.01,4.79,2.67,3.64,3.96z"
    />
    <path
      class="st3"
      d="M7.51,25.25c-0.88,0-2.25-0.44-3.83-2.56c-1.18-1.58-2.19-3.75-2.85-6.12c-0.71-2.52-0.97-5.07-0.76-7.35
      C0.31,6.61,1.13,4.5,2.52,2.96c1.37-1.53,3.24-2.39,5.72-2.64c1.97-0.19,4.33,0.01,7.23,0.62c1.53,0.32,7.68,2.14,7.68,2.14
      l-3.22,1.65C19.79,4.81,19.64,4.9,19.49,5c-1.62,1.06-2.44,2.59-2.44,4.55c0,4.2-0.99,8.14-2.79,11.11
      C12.46,23.62,10.06,25.25,7.51,25.25z M9.76,3.25c-0.43,0-0.84,0.02-1.22,0.06C6.84,3.48,5.6,4.02,4.75,4.96l0,0
      C3.82,6,3.23,7.57,3.06,9.49c-0.17,1.9,0.06,4.13,0.66,6.27c0.57,2.02,1.41,3.85,2.37,5.13c0.91,1.21,1.47,1.35,1.48,1.35
      c1.39,0,2.91-1.15,4.13-3.16c1.5-2.47,2.36-5.95,2.36-9.55c0-2.08,0.67-3.93,1.92-5.41c-0.37-0.09-0.75-0.17-1.12-0.25
      C12.86,3.46,11.18,3.25,9.76,3.25z"
    />
  </g>
  <ellipse class="st3" cx="42.5" cy="18.75" rx="3.5" ry="4.5" />
  <circle class="st1" cx="42" cy="17.25" r="1" />
  <circle class="st1" cx="43.5" cy="20.75" r="0.5" />
  <circle class="st1" cx="22" cy="17.25" r="1" />
  <circle class="st1" cx="20.5" cy="20.75" r="0.5" />
</svg>
