<svg
  fill="none"
  height="28"
  viewBox="0 0 28 28"
  width="28"
  xmlns="http://www.w3.org/2000/svg"
  xmlns:xlink="http://www.w3.org/1999/xlink"
><clipPath id="a"><path d="m8 6h12.5v16h-12.5z" /></clipPath><path
    d="m0 0h28v28h-28z"
    fill="#ffe0d8"
  /><g clip-path="url(#a)" fill="#1d1d1d"><path
      d="m16.0458 13.4391c-.3031-.2162-.6436-.3182-1.0189-.2486-.0969-.6586-.6659-1.0239-1.1778-1.014-.251.005-.3157-.0646-.3306-.3156-.0174-.2833.0225-.5591.0821-.835.1938-.8772.4721-1.73712.502-2.6467.0124-.3529-.01-.69585-.1616-1.01644-.2932-.62378-.9169-.74307-1.4264-.28331-.2435.22118-.4224.48213-.5467.78781-.1565.3852-.2559.78531-.3553 1.18543-.2212.91455-.4995 1.81671-.6387 2.74861-.0248.169-.0547.3429-.2087.4995-.1193-.5095-.2436-.9965-.3107-1.4936-.1665-1.2028-.2758-2.4106-.318-3.62585-.01-.24852-.0473-.49207-.17648-.71325-.2162-.36284-.60883-.55172-.9617-.43243-.45227.1516-.76787.44485-.88466.92201-.07455.30568-.10935.61632-.11183.93194-.00994.99408.02237 1.98566.05467 2.97978.01491.4051.02734.8101.05467 1.2127.05964.8226.12425 1.6452.1988 2.4678.0497.5592.05964 1.1208.08946 1.6825.00994.1814-.01739.3604-.00994.5443.0174.4249.11432.8325.19384 1.245.14661.7555.25844 1.511.26838 2.2839.00745.4722.0323.9419.04473 1.4141.00248.0969.02236.1789.11182.2336.09195.0547.18638.0646.28329.0124.10189-.0546.12425-.1466.12177-.251-.01988-.5219-.02733-1.0413-.04224-1.5632-.01988-.7729-.13917-1.5283-.28827-2.2814-.10188-.5194-.18886-1.0363-.16898-1.5706.01988-.497-.01242-.9916-.05467-1.4862-.07952-.9617-.17395-1.9235-.23607-2.8852-.04473-.7108-.06213-1.4216-.0671-2.13483-.00746-.75301-.08946-1.50353-.00497-2.25654.02982-.25598.0497-.51444.19383-.73313.12176-.18142.29571-.35539.51936-.31314.23608.04474.30566.28332.32803.5045.01739.15656.00746.31562.01988.47218.06213.79775.10437 1.59797.19631 2.39323.0497.42493.08698.85243.17396 1.27243.10931.5244.21371 1.0512.32801 1.5756.0249.1118.077.2187.1168.3255.0497.1342.1541.1964.2883.1964.1242 0 .2162-.0671.2733-.1814.1118-.2212.2286-.4399.3429-.6611.0224-.0447.0373-.0919.0473-.1416.2286-1.0737.5069-2.1373.7778-3.20097.0894-.3529.1739-.70579.3181-1.04129.1093-.25597.2534-.48461.4821-.64863.2137-.15408.2907-.10935.4348.06958.1243.15408.1616.34296.174.53183.0323.48958-.0199.97419-.1218 1.45135-.1218.56414-.2758 1.12333-.3926 1.68743-.0895.4349-.1566.8797.0969 1.2724-.5641.5716-.8051 1.2351-.6635 2.0006.0522.2783.0472.4896-.1814.666-.0174.015-.0373.0249-.0621.0373-.0473-.0397-.092-.077-.1342-.1143-.3777-.338-.7903-.6288-1.25-.8425-.164-.0771-.328-.1591-.5119-.1839-.1292-.0199-.241.0497-.2734.1616-.0323.1143.0249.1962.1119.2509.077.0472.1665.0746.251.1069.5765.2286 1.0611.5865 1.4959 1.0189-.0646.087-.1342.1441-.2062.2013-.3579.2808-.7207.4722-1.1705.1715-.1491-.0994-.2982-.0472-.3677.077-.0671.1193-.0324.2162.1317.3256.3777.251.7753.3032 1.1977.1218.415-.1764.7431-.4573 1.0189-.8077.1342-.169.256-.3454.4225-.4871.3777-.3206.8573-.2212 1.0735.2237.0347.0745.0646.1541.082.2336.1466.6611-.0547 1.2401-.4846 1.7222-.7182.8027-1.6749 1.0016-2.7037.9568-.0745-.0025-.1441-.0224-.2187.0025-.0919.0323-.1615.082-.169.1889-.0074.1044.0423.1715.1293.2212.082.0447.1739.0546.2634.0596.8623.0447 1.6774-.1069 2.4278-.5517.0621-.0373.1119-.0969.2038-.0944.0448.2112-.0199.4075-.0721.6039-.1217.4523-.3354.8598-.6262 1.2276-.1068.1342-.0994.2336 0 .3305.0994.0945.246.0995.3628.0075.0323-.0248.0622-.0571.087-.0894.5144-.6586.8176-1.3968.7977-2.2417-.0049-.2361-.0075-.4548.1739-.6337.0671-.0671.0697-.1914.1815-.2237.1267-.0373.1988-.1417.2833-.2336.328-.3604.6584-.7232 1.0237-1.0463.0373-.0323.0622-.1068.1442-.0696v.6412c-.0025.8002-.1242 1.5781-.3852 2.3336-.1988.5766-.4075 1.1506-.5368 1.7496-.0621.2833-.1168.5666-.1366.8549-.0125.1715.077.2758.2311.2982.1491.0224.2485-.0596.2808-.2361.0249-.1466.0398-.2932.0646-.4398.1019-.6039.2833-1.1879.4945-1.762.2907-.7878.4796-1.6005.5094-2.438.0199-.5691.0622-1.1382.0547-1.7098-.0024-.1342.0125-.2634.0249-.3951.0522-.4598-.0895-.85-.4722-1.1233zm-2.1048.9865c-.0373.0597-.0671.0796-.1367.0547-.2162-.0746-.4373-.0944-.656-.0248-.1093.0323-.1342-.0348-.1466-.1093-.0174-.1144-.0224-.2312-.0323-.3281.0174-.4076.1341-.7655.3578-1.0836.2485-.3554.7878-.3802 1.0462-.0347.1342.1789.169.6038.0447.8026-.1565.2411-.323.4772-.4771.7232zm1.993.3107c-.0745.1591-.174.3007-.2933.425-.2957.3082-.6286.5815-.9566.9493.0273-.4796-.0399-.8797-.3082-1.2227-.0597-.077-.0373-.1292.0074-.1963.169-.2535.3281-.5145.5045-.763.2784-.3927.7878-.3554 1.0214.0721.1267.2386.1441.4846.0248.7356z"
    /><path
      d="m19.2535 9.5936c-.5208.01031-1.0764.4792-1.0577.9069.0241.5488.406 1.0641 1.0791 1.0976.5262.0258 1.0123-.4534 1.0097-.961-.0054-.5565-.4968-1.0538-1.0311-1.0435zm.0642 1.5073c-.2137.0283-.4595-.1572-.5182-.3943-.0721-.2911.1522-.5977.4567-.6286.0962-.0103.1736.0335.2404.0927.1336.1211.2137.2706.2137.4818 0 .2087-.1709.4174-.3926.4484z"
    /></g></svg>
