<svg width="32" height="32" viewBox="0 0 32 32" fill="none" xmlns="http://www.w3.org/2000/svg">
<path d="M12.9326 11.2631C7.45763 11.2631 3 15.9144 3 21.3893C3 26.9613 7.45763 31.6128 12.9326 31.6128C18.4076 31.6128 22.8652 26.9613 22.8652 21.3893C22.8652 15.9144 18.4076 11.2631 12.9326 11.2631ZM12.9326 26.3799C10.3163 26.3799 8.28128 24.1511 8.28128 21.3893C8.28128 18.6761 10.3163 16.4957 12.9326 16.4957C15.5005 16.4957 17.5839 18.6761 17.5839 21.3893C17.5839 24.1511 15.5005 26.3799 12.9326 26.3799Z" fill="#005C6E"/>
<path d="M26.9035 7.26288C27.8544 6.31479 28.5719 5.15878 28.9998 3.88599C29.4121 2.65609 29.546 1.34997 29.3919 0.0619967C28.1039 -0.0920626 26.7978 0.0418673 25.5679 0.454112C24.2959 0.883678 23.1403 1.60105 22.191 2.55036C21.2416 3.49968 20.5244 4.65532 20.0948 5.92727C19.6825 7.15719 19.5486 8.46329 19.7025 9.75126C20.9906 9.90532 22.2968 9.7714 23.5265 9.35915C24.7994 8.93135 25.9554 8.21374 26.9035 7.26288Z" fill="#005C6E"/>
</svg>
