<?xml version="1.0" encoding="utf-8"?>
<!-- Generator: Adobe Illustrator 25.4.1, SVG Export Plug-In . SVG Version: 6.00 Build 0)  -->
<svg version="1.1" id="Layer_1" xmlns="http://www.w3.org/2000/svg" xmlns:xlink="http://www.w3.org/1999/xlink" x="0px" y="0px"
	 viewBox="0 0 178.33 176.33" style="enable-background:new 0 0 178.33 176.33;" xml:space="preserve">
<style type="text/css">
	.st0{fill:#FFFFFF;}
	.st1{fill:#CE0E2D;}
</style>
<g>
	<path d="M170.31,87.21c0,44.48-36.21,80.55-80.88,80.55c-44.67,0-80.88-36.06-80.88-80.55c0-44.48,36.21-80.55,80.88-80.55
		C134.09,6.67,170.31,42.73,170.31,87.21"/>
	<path class="st0" d="M106.58,64.68c4.61,0,8.26,3.49,8.26,10.28c0,7.54-3.65,11.02-8.26,11.02c-4.61,0-7.08-3.49-7.08-10.65
		C99.49,68.17,101.97,64.68,106.58,64.68 M94.66,87.27c0.05,0,2.54,2.77,6.29,3.28c0.92,0.18,1.89,0.29,2.94,0.29
		c4.54,0,8.05-1.81,10.8-6.04h0.14v5.11h14.45v-4.11h-3.58c-2.13,0-2.75-0.87-2.75-2.74V48.61h-15.28v4.11h4.34
		c2.13,0,2.82,0.87,2.82,2.74v9.71h-0.14c-1.58-2.3-5.37-5.36-10.8-5.36c-8.6,0-13.62,7.85-13.62,15.51
		C90.27,79.78,91.65,84.27,94.66,87.27"/>
	<path class="st1" d="M158.89,119.14c-2.43,0-4.4,1.96-4.4,4.38c0,2.42,1.97,4.38,4.4,4.38c2.43,0,4.4-1.96,4.4-4.38
		C163.29,121.11,161.32,119.14,158.89,119.14"/>
	<path class="st0" d="M69.09,104.56h-5.69V91.17h5.69c6.5,0,9.01,1.99,9.01,6.79C78.09,102.76,74.96,104.56,69.09,104.56
		 M61.49,86.35L61.49,86.35C61.49,86.35,61.49,86.35,61.49,86.35L61.49,86.35z M37.7,65.93h-8.12V53.1h8.81
		c6.05,0,8.88,2.18,8.88,6.04C47.26,63.75,45.13,65.93,37.7,65.93 M73.65,64.18c4.88,0,6.26,3.86,6.19,7.79H67.04
		C67.25,68.05,68.97,64.18,73.65,64.18 M82.67,89.1c3.66-1.86,5.7-5.13,6.26-9.54h-5.71c-0.89,4.3-3.37,6.6-8.32,6.6
		c-6.4,0-8.05-5.23-7.84-10.09h22.01c0.76-7.1-3.99-16.26-15.27-16.26c-9.49,0-15.96,6.42-15.96,15.51c0,1.07,0.08,2.08,0.21,3.05
		h-0.03v1.93c0,3.67-0.69,4.98-2.34,4.98c-1.17,0-2.82-1-2.82-7.6c0-4.86-1.65-7.72-8.88-8.53v-0.12
		c6.95-0.56,12.93-3.67,12.93-10.09c0-6.79-4.68-10.34-14.65-10.34H18.41c0,0-1.03,1.88-2.34,4.61c0.23-0.01,1.05,0,1.05,0
		c2.13,0,2.82,0.62,2.82,2.24v27.59c0,1.62-0.69,2.24-2.82,2.24h-4.82v4.61h25.11V85.3H32.4c-2.13,0-2.82-0.62-2.82-2.24V70.54h4.06
		c8.04,0,10.52,2.18,10.52,12.14c0,5.11,2.07,8.47,8.88,8.47c0.45,0,0.9-0.02,1.33-0.06c0.17,0.29,0.27,0.64,0.27,1.09v28.96
		c0,1.62-1.25,2.12-2.69,2.12h-4v4.61H70.4v-4.61h-4c-1.44,0-3-0.5-3-2.12v-11.96h9.82c8.38,0,14.01-3.61,14.01-11.27
		C87.23,94.07,85.63,91.06,82.67,89.1"/>
	<path class="st0" d="M145.44,120.99v-13.46c0-6.73-3.71-10.03-9.77-10.03c-5.37,0-9.15,2.49-11.97,6.35h-0.14v-5.42h-14.8v4.11
		h2.27c3.58,0,4.4,0.68,4.4,3.36v15.07c0,1.81-0.82,2.49-2.75,2.49h-3.92v4.11H129v-4.11h-2.68c-1.93,0-2.75-0.68-2.75-2.49v-11.46
		c0-3.99,4.4-7.16,7.7-7.16c3.3,0,6.06,1,6.06,5.67v12.96c0,1.81-0.83,2.49-3.72,2.49h-1.65v4.11h20.09v-4.11h-2.48
		C146.27,123.48,145.44,122.8,145.44,120.99"/>
	<path class="st0" d="M101.55,120.99V98.45H87.51v4.11h3.16c1.93,0,2.75,0.68,2.75,2.49v15.95c0,1.81-0.83,2.49-2.75,2.49h-3.16
		v4.11h20.16v-4.11h-3.37C102.37,123.48,101.55,122.8,101.55,120.99"/>
</g>
</svg>
