<svg
  version="1.1"
  xmlns="http://www.w3.org/2000/svg"
  x="0px"
  y="0px"
  viewBox="0 0 200.4 200.4"
>
  <g id="gunmetal-circle">
    <path
      fill="currentColor"
      d="M100.2,8c50.9,0,92.2,41.4,92.2,92.2s-41.4,92.2-92.2,92.2S8,151.1,8,100.2S49.4,8,100.2,8 M100.2,0
      C44.9,0,0,44.9,0,100.2s44.9,100.2,100.2,100.2s100.2-44.9,100.2-100.2S155.6,0,100.2,0L100.2,0z"
    />
  </g>
  <g id="gunmetal-g">
    <path
      fill="currentColor"
      d="M80.8,115.2c-3-4.2-4.7-9.4-4.7-15c0-14.4,11.7-26.1,26.1-26.1c5.6,0,10.7,1.8,15,4.7l5.8-5.8
      c-5.8-4.4-12.9-7-20.7-7C83.3,66,68,81.3,68,100.2c0,7.8,2.6,15,7,20.7L80.8,115.2z"
    />
    <path
      fill="currentColor"
      d="M100.1,107.2h19v12.9c-4.6,3.9-10.4,6.2-16.9,6.2c-6,0-11.4-2-15.8-5.4l-5.7,5.7c5.9,4.8,13.4,7.7,21.6,7.7
      c9.8,0,18.7-4.2,24.9-10.8v-3.4v-21h-19L100.1,107.2z"
    />
  </g>
</svg>
