<svg enable-background="new 0 0 178.33 176.33" viewBox="0 0 178.33 176.33" xmlns="http://www.w3.org/2000/svg"><path d="m170.31 87.21c0 44.48-36.21 80.55-80.88 80.55s-80.88-36.06-80.88-80.55c0-44.48 36.21-80.55 80.88-80.55 44.66.01 80.88 36.07 80.88 80.55"/><path d="m106.58 64.68c4.61 0 8.26 3.49 8.26 10.28 0 7.54-3.65 11.02-8.26 11.02s-7.08-3.49-7.08-10.65c-.01-7.16 2.47-10.65 7.08-10.65m-11.92 22.59c.05 0 2.54 2.77 6.29 3.28.92.18 1.89.29 2.94.29 4.54 0 8.05-1.81 10.8-6.04h.14v5.11h14.45v-4.11h-3.58c-2.13 0-2.75-.87-2.75-2.74v-34.45h-15.28v4.11h4.34c2.13 0 2.82.87 2.82 2.74v9.71h-.14c-1.58-2.3-5.37-5.36-10.8-5.36-8.6 0-13.62 7.85-13.62 15.51 0 4.46 1.38 8.95 4.39 11.95" fill="#fff"/><path d="m158.89 119.14c-2.43 0-4.4 1.96-4.4 4.38s1.97 4.38 4.4 4.38 4.4-1.96 4.4-4.38c0-2.41-1.97-4.38-4.4-4.38" fill="#ce0e2d"/><g fill="#fff"><path d="m69.09 104.56h-5.69v-13.39h5.69c6.5 0 9.01 1.99 9.01 6.79-.01 4.8-3.14 6.6-9.01 6.6m-31.39-38.63h-8.12v-12.83h8.81c6.05 0 8.88 2.18 8.88 6.04-.01 4.61-2.14 6.79-9.57 6.79m35.95-1.75c4.88 0 6.26 3.86 6.19 7.79h-12.8c.21-3.92 1.93-7.79 6.61-7.79m9.02 24.92c3.66-1.86 5.7-5.13 6.26-9.54h-5.71c-.89 4.3-3.37 6.6-8.32 6.6-6.4 0-8.05-5.23-7.84-10.09h22.01c.76-7.1-3.99-16.26-15.27-16.26-9.49 0-15.96 6.42-15.96 15.51 0 1.07.08 2.08.21 3.05h-.03v1.93c0 3.67-.69 4.98-2.34 4.98-1.17 0-2.82-1-2.82-7.6 0-4.86-1.65-7.72-8.88-8.53v-.12c6.95-.56 12.93-3.67 12.93-10.09 0-6.79-4.68-10.34-14.65-10.34h-23.85s-1.03 1.88-2.34 4.61c.23-.01 1.05 0 1.05 0 2.13 0 2.82.62 2.82 2.24v27.59c0 1.62-.69 2.24-2.82 2.24h-4.82v4.61h25.11v-4.59h-5.01c-2.13 0-2.82-.62-2.82-2.24v-12.52h4.06c8.04 0 10.52 2.18 10.52 12.14 0 5.11 2.07 8.47 8.88 8.47.45 0 .9-.02 1.33-.06.17.29.27.64.27 1.09v28.96c0 1.62-1.25 2.12-2.69 2.12h-4v4.61h22.45v-4.61h-4c-1.44 0-3-.5-3-2.12v-11.96h9.82c8.38 0 14.01-3.61 14.01-11.27 0-3.84-1.6-6.85-4.56-8.81"/><path d="m145.44 120.99v-13.46c0-6.73-3.71-10.03-9.77-10.03-5.37 0-9.15 2.49-11.97 6.35h-.14v-5.42h-14.8v4.11h2.27c3.58 0 4.4.68 4.4 3.36v15.07c0 1.81-.82 2.49-2.75 2.49h-3.92v4.11h20.24v-4.11h-2.68c-1.93 0-2.75-.68-2.75-2.49v-11.46c0-3.99 4.4-7.16 7.7-7.16s6.06 1 6.06 5.67v12.96c0 1.81-.83 2.49-3.72 2.49h-1.65v4.11h20.09v-4.11h-2.48c-3.3.01-4.13-.67-4.13-2.48"/><path d="m101.55 120.99v-22.54h-14.04v4.11h3.16c1.93 0 2.75.68 2.75 2.49v15.95c0 1.81-.83 2.49-2.75 2.49h-3.16v4.11h20.16v-4.11h-3.37c-1.93-.01-2.75-.69-2.75-2.5"/></g></svg>