<svg width="32" height="32" fill="none" xmlns="http://www.w3.org/2000/svg">
  <path
    fill-rule="evenodd"
    clip-rule="evenodd"
    d="M14.545 32c.344.002.682-.092.976-.272l8.663-5.217a3.782 3.782 0 001.831-3.228V4.233a1.647 1.647 0 00-1.021-1.535 1.657 1.657 0 00-.637-.126 1.61 1.61 0 00-.837.25l-4.217 2.526a5.074 5.074 0 011.304 3.38v14.608a3.141 3.141 0 01-1.596 2.752 3.158 3.158 0 01-3.186-.043l-3.181-1.908v5.969a1.883 1.883 0 001.172 1.753c.232.094.48.142.73.141zM13.832 7.154l3.223-1.937L8.834.272A1.869 1.869 0 007.142.145a1.891 1.891 0 00-1.164 1.746v14.608a3.78 3.78 0 001.83 3.256l3.578 2.152V11.483a5.064 5.064 0 012.446-4.329z"
    fill="currentColor"
  /><path
    fill-rule="evenodd"
    clip-rule="evenodd"
    d="M12.658 11.483v11.176l3.824 2.3a1.864 1.864 0 001.69.126 1.896 1.896 0 001.166-1.749V8.728a3.774 3.774 0 00-1.152-2.71l-3.697 2.223a3.78 3.78 0 00-1.831 3.242z"
    fill="currentColor"
  />
</svg>
